<svg xmlns="http://www.w3.org/2000/svg" width="141" height="57.276" viewBox="0 0 141 57.276">
  <g id="Group_18730" data-name="Group 18730" transform="translate(-135 -71.724)">
    <g id="Group_18725" data-name="Group 18725" transform="translate(0 6.575)">
      <g id="Group_18724" data-name="Group 18724" transform="translate(135 65.149)">
        <path id="Path_73868" data-name="Path 73868" d="M42.009,29.979s.3-15.937,15.512-15.451c22.155.708,51.8,6.156,78.788,4.219,0,0-21.159-1.347-35.858-4.219C92.068,12.89,77.87,10.061,76.877,9.813S94.726,1.8,115.589,3.857c18.236,1.8,27.3,7.693,27.3,7.693s-18.363-17.832-53.6-9.182c-34.575,8.488-33.567,6.641-40.329,8.3C47.18,11.109,38.359,14.65,42.009,29.979Z" transform="translate(-41.132 0)" fill="#d01818"/>
        <path id="Path_73869" data-name="Path 73869" d="M193.17,25.676s18.266,2.492,32.086,1.236,32.8-1.4,40.342,10.749c0,0-9.213-8.236-30.99-7.678A152.54,152.54,0,0,1,193.17,25.676Z" transform="translate(-124.979 -14.16)" fill="#d01818"/>
        <path id="Path_73870" data-name="Path 73870" d="M67.274,51.229s11.586-9.353,22.2,0h40.063L92.121,49.151S79.057,35.786,67.274,51.229Z" transform="translate(-55.549 -24.145)" fill="#d01818"/>
        <path id="Path_73871" data-name="Path 73871" d="M279.647,56.677s10.539-5.649,21.078,0C300.726,56.677,290.4,46.487,279.647,56.677Z" transform="translate(-172.669 -28.759)" fill="#d01818"/>
        <path id="Path_73872" data-name="Path 73872" d="M295.909,62.652a7.6,7.6,0,0,1,6.491,0S299.219,59.514,295.909,62.652Z" transform="translate(-181.637 -33.782)" fill="#d01818"/>
        <path id="Path_73873" data-name="Path 73873" d="M82.483,58.607a10.653,10.653,0,0,1,9.1,0S87.124,54.207,82.483,58.607Z" transform="translate(-63.937 -31.242)" fill="#d01818"/>
      </g>
    </g>
    <text id="Auto_Car" data-name="Auto Car" transform="translate(136 123)" font-size="17" font-family="Jaguar-Bold, Jaguar" font-weight="700"><tspan x="0" y="0">AUTO CAR</tspan></text>
  </g>
</svg>
